# xmcd CD database file
#
# Track frame offsets:
#	182
#	20742
#	42280
#	63922
#
# Disc length: 1134 seconds
#
# Revision: 2
# Processed by: cddbd v1.5.1PL2 Copyright (c) Steve Scherf et al.
# Submitted via: CDex 1.51
#
DISCID=2e046c04
DTITLE=IAM - Côté Obscur
DYEAR=1900
DGENRE=Rap Français
TTITLE0=L'Empire du Côté Obscur
TTITLE1=La Saga (Soul Remix)
TTITLE2=La saga (Noir Chateau Remix)
TTITLE3=Des Sous
EXTD=
EXTT0=
EXTT1=
EXTT2=
EXTT3=
PLAYORDER=
